<mxfile host="65bd71144e">
    <diagram id="5nKx2CmkBPhfgWg-74rs" name="第 1 页">
        <mxGraphModel dx="511" dy="168" grid="1" gridSize="10" guides="1" tooltips="1" connect="1" arrows="1" fold="1" page="1" pageScale="1" pageWidth="827" pageHeight="1169" math="0" shadow="0">
            <root>
                <mxCell id="0"/>
                <mxCell id="1" parent="0"/>
                <mxCell id="25" value="" style="rounded=1;whiteSpace=wrap;html=1;" vertex="1" parent="1">
                    <mxGeometry x="80" y="117" width="270" height="25" as="geometry"/>
                </mxCell>
                <mxCell id="24" value="" style="rounded=1;whiteSpace=wrap;html=1;" vertex="1" parent="1">
                    <mxGeometry x="80" y="77.5" width="270" height="25" as="geometry"/>
                </mxCell>
                <mxCell id="3" value="&lt;font style=&quot;font-size: 10px;&quot;&gt;a0&lt;/font&gt;" style="rounded=0;whiteSpace=wrap;html=1;fontSize=10;fillColor=#eeeeee;strokeColor=#36393d;" vertex="1" parent="1">
                    <mxGeometry x="80" y="80" width="40" height="20" as="geometry"/>
                </mxCell>
                <mxCell id="5" value="b0" style="rounded=0;whiteSpace=wrap;html=1;fontSize=10;fillColor=#eeeeee;strokeColor=#36393d;" vertex="1" parent="1">
                    <mxGeometry x="120" y="80" width="40" height="20" as="geometry"/>
                </mxCell>
                <mxCell id="10" value="beq" style="rounded=0;whiteSpace=wrap;html=1;fontSize=10;fillColor=#f8cecc;strokeColor=#b85450;" vertex="1" parent="1">
                    <mxGeometry x="160" y="80" width="40" height="20" as="geometry"/>
                </mxCell>
                <mxCell id="11" value="c0" style="rounded=0;whiteSpace=wrap;html=1;fontSize=10;fillColor=#eeeeee;strokeColor=#36393d;" vertex="1" parent="1">
                    <mxGeometry x="200" y="80" width="40" height="20" as="geometry"/>
                </mxCell>
                <mxCell id="12" value="&lt;font style=&quot;font-size: 10px;&quot;&gt;a0&lt;/font&gt;" style="rounded=0;whiteSpace=wrap;html=1;fontSize=10;fillColor=#eeeeee;strokeColor=#36393d;" vertex="1" parent="1">
                    <mxGeometry x="80" y="120" width="40" height="20" as="geometry"/>
                </mxCell>
                <mxCell id="13" value="b0" style="rounded=0;whiteSpace=wrap;html=1;fontSize=10;fillColor=#eeeeee;strokeColor=#36393d;" vertex="1" parent="1">
                    <mxGeometry x="120" y="120" width="40" height="20" as="geometry"/>
                </mxCell>
                <mxCell id="14" value="jr" style="rounded=0;whiteSpace=wrap;html=1;fontSize=10;fillColor=#f8cecc;strokeColor=#b85450;" vertex="1" parent="1">
                    <mxGeometry x="160" y="120" width="40" height="20" as="geometry"/>
                </mxCell>
                <mxCell id="23" value="d0" style="rounded=0;whiteSpace=wrap;html=1;fontSize=10;fillColor=#eeeeee;strokeColor=#36393d;" vertex="1" parent="1">
                    <mxGeometry x="240" y="80" width="40" height="20" as="geometry"/>
                </mxCell>
                <mxCell id="26" value="条件跳转" style="text;html=1;strokeColor=none;fillColor=none;align=center;verticalAlign=middle;whiteSpace=wrap;rounded=0;" vertex="1" parent="1">
                    <mxGeometry x="10" y="82.5" width="50" height="15" as="geometry"/>
                </mxCell>
                <mxCell id="27" value="无条件跳转" style="text;html=1;strokeColor=none;fillColor=none;align=center;verticalAlign=middle;whiteSpace=wrap;rounded=0;" vertex="1" parent="1">
                    <mxGeometry y="122" width="70" height="15" as="geometry"/>
                </mxCell>
            </root>
        </mxGraphModel>
    </diagram>
</mxfile>